<svg xmlns="http://www.w3.org/2000/svg" viewBox="0 0 360 80" role="img" aria-label="Africa GATES">
  <!-- Mark -->
  <g transform="translate(0,8)">
    <circle cx="32" cy="32" r="31" fill="#ffffff" stroke="#0a5a25" stroke-width="0.6"/>
    <g fill="none" stroke="#0a5a25" stroke-width="1.6" stroke-linejoin="round" stroke-linecap="round" transform="translate(-26,-25) scale(0.55)">
      <path d="M48 25 c-6 1 -12 5 -15 11 c-2 5 -2 11 0 16 c1 4 4 8 4 13 c0 4 -1 8 -1 12 c0 6 3 12 7 17 c3 4 7 7 11 9 c4 2 8 1 11 -1 c4 -3 5 -8 6 -13 c1 -5 3 -9 6 -12 c4 -4 6 -10 5 -16 c-1 -7 -5 -12 -10 -16 c-3 -2 -5 -5 -6 -8 c-1 -4 -3 -8 -6 -10 c-3 -2 -7 -3 -12 -2 z"/>
      <ellipse cx="89" cy="78" rx="2.4" ry="6" transform="rotate(20 89 78)"/>
    </g>
    <circle cx="51" cy="22" r="1.4" fill="#d49a0e"/>
  </g>
  <!-- Wordmark -->
  <text x="80" y="38" font-family="'Playfair Display', Georgia, serif" font-weight="700" font-size="30" fill="#0a5a25">Africa</text>
  <text x="80" y="60" font-family="'DM Sans', system-ui, sans-serif" font-weight="600" font-size="12" letter-spacing="6" fill="#0a0f1a">G.A.T.E.S.</text>
</svg>
